<?xml version="1.0" standalone="no"?>
<!DOCTYPE svg PUBLIC "-//W3C//DTD SVG 20010904//EN"
 "http://www.w3.org/TR/2001/REC-SVG-20010904/DTD/svg10.dtd">
<svg version="1.0" xmlns="http://www.w3.org/2000/svg"
 width="300.000000pt" height="274.000000pt" viewBox="0 0 300.000000 274.000000"
 preserveAspectRatio="xMidYMid meet">
<metadata>
Created by potrace 1.10, written by Peter Selinger 2001-2011
</metadata>
<g transform="translate(0.000000,274.000000) scale(0.100000,-0.100000)"
fill="#000000" stroke="none">
<path d="M1355 2139 c-22 -5 -57 -14 -79 -20 l-39 -11 6 -101 c6 -123 31 -210
86 -295 77 -118 183 -200 313 -243 103 -34 252 -34 356 0 79 26 165 77 231
136 l41 37 -40 77 c-22 42 -53 92 -69 111 -28 33 -30 34 -48 18 -10 -9 -45
-30 -78 -45 -52 -24 -73 -28 -150 -28 -80 0 -97 3 -157 32 -118 56 -206 172
-223 294 l-7 49 -51 -1 c-29 -1 -70 -5 -92 -10z m129 -93 c73 -258 356 -380
598 -260 l47 24 27 -33 c15 -17 36 -51 46 -75 l19 -43 -24 -32 c-33 -43 -136
-103 -222 -129 -94 -28 -236 -28 -318 1 -221 77 -374 273 -378 486 -2 91 -1
95 29 106 32 13 121 26 142 21 9 -2 23 -29 34 -66z"/>
<path d="M1620 2122 c1 -39 36 -112 73 -150 47 -50 103 -74 178 -80 57 -4 75
-1 123 21 31 14 56 30 56 34 0 15 -154 113 -225 142 -38 16 -100 36 -137 44
l-68 15 0 -26z m126 -43 c80 -24 194 -82 220 -110 16 -17 16 -22 4 -29 -34
-21 -141 -15 -190 11 -50 26 -65 40 -89 79 -18 31 -28 70 -17 70 2 0 35 -9 72
-21z"/>
<path d="M1035 2002 c-91 -65 -97 -77 -116 -218 -33 -252 80 -530 280 -687 33
-26 61 -47 63 -47 1 0 2 63 0 140 l-3 140 60 0 61 0 0 -174 0 -173 73 -21 c39
-12 93 -24 120 -28 l47 -6 0 131 0 131 60 0 60 0 0 -130 c0 -111 2 -130 16
-130 49 0 172 38 259 80 109 52 212 137 281 231 l37 51 -6 81 c-3 45 -9 96
-13 114 l-6 32 -47 -38 c-182 -153 -441 -197 -674 -116 -184 64 -350 224 -417
403 -27 69 -53 214 -48 259 2 18 2 33 -2 33 -3 0 -41 -26 -85 -58z m60 -75
c31 -235 183 -450 395 -557 218 -110 487 -104 688 16 81 48 101 58 107 53 2
-3 5 -35 6 -72 2 -57 -2 -72 -24 -105 -98 -149 -360 -302 -485 -283 -5 0 -9
46 -9 102 0 122 -9 137 -90 140 -82 4 -93 -11 -93 -131 0 -107 -6 -120 -55
-113 -49 7 -104 23 -110 32 -3 5 -8 78 -11 163 -6 134 -9 156 -27 175 -16 18
-29 22 -69 19 -76 -4 -87 -21 -90 -139 -2 -53 -6 -97 -9 -97 -15 0 -86 71
-124 125 -102 144 -146 279 -146 447 0 84 9 141 33 201 11 28 85 90 99 82 4
-3 10 -29 14 -58z"/>
<path d="M777 1707 c-104 -212 -115 -472 -30 -684 58 -145 180 -292 312 -378
55 -36 177 -95 196 -95 3 0 5 82 5 183 l-1 182 -70 45 c-140 89 -273 248 -330
394 -41 106 -52 180 -47 311 2 63 3 115 2 115 -1 0 -18 -33 -37 -73z m1 -167
c3 -44 29 -148 49 -201 52 -133 185 -297 312 -386 36 -26 72 -53 79 -62 8 -10
12 -55 12 -143 0 -145 -3 -151 -67 -122 -263 121 -450 426 -442 718 2 71 20
171 38 204 15 28 16 28 19 -8z"/>
<path d="M2228 1017 c-103 -95 -265 -172 -417 -196 -35 -6 -65 -12 -68 -14 -2
-2 -2 -63 -1 -135 l3 -131 80 34 c198 86 352 240 439 438 14 31 25 57 23 57
-1 -1 -27 -24 -59 -53z m-65 -117 c-7 -28 -126 -154 -188 -200 -61 -45 -182
-106 -191 -97 -4 4 -8 41 -8 83 -2 84 8 104 49 104 38 0 234 68 289 100 28 16
52 30 53 30 0 0 -1 -9 -4 -20z"/>
<path d="M1380 692 l0 -169 31 -7 c40 -8 157 -8 187 0 22 6 22 9 22 150 l0
143 -37 6 c-59 9 -166 33 -185 40 -17 7 -18 -5 -18 -163z m194 79 c13 -11 16
-32 16 -107 0 -83 -2 -94 -21 -108 -24 -17 -123 -16 -141 2 -15 15 -23 219 -9
235 13 16 129 0 155 -22z"/>
</g>
</svg>
